<svg xmlns="http://www.w3.org/2000/svg" xmlns:xlink="http://www.w3.org/1999/xlink" width="100" zoomAndPan="magnify" viewBox="0 0 75 30.000001" height="40" preserveAspectRatio="xMidYMid meet" version="1.0"><defs><g/><clipPath id="ecb21b27a1"><path d="M 8.257812 7.539062 L 22.050781 7.539062 L 22.050781 21.328125 L 8.257812 21.328125 Z M 8.257812 7.539062 " clip-rule="nonzero"/></clipPath></defs><g clip-path="url(#ecb21b27a1)"><path fill="#ffffff" d="M 17.058594 18.660156 L 13.6875 18.660156 L 13.6875 18.21875 L 14.3125 18.21875 L 14.3125 13.699219 L 13.640625 13.699219 L 13.640625 13.253906 L 16.421875 13.253906 L 16.421875 18.21875 L 17.058594 18.21875 Z M 15.289062 10.367188 C 15.871094 10.367188 16.339844 10.835938 16.339844 11.414062 C 16.339844 11.996094 15.871094 12.464844 15.289062 12.464844 C 14.710938 12.464844 14.242188 11.996094 14.242188 11.414062 C 14.242188 10.835938 14.710938 10.367188 15.289062 10.367188 Z M 15.234375 7.539062 C 11.382812 7.539062 8.257812 10.660156 8.257812 14.511719 C 8.257812 18.363281 11.382812 21.488281 15.234375 21.488281 C 19.085938 21.488281 22.207031 18.363281 22.207031 14.511719 C 22.207031 10.660156 19.085938 7.539062 15.234375 7.539062 " fill-opacity="1" fill-rule="nonzero"/></g><g fill="#ffffff" fill-opacity="1"><g transform="translate(25.886681, 17.467902)"><g><path d="M 3.46875 0 L 1.953125 -4.96875 L 1.90625 -4.96875 C 1.914062 -4.84375 1.925781 -4.660156 1.9375 -4.421875 C 1.945312 -4.191406 1.957031 -3.941406 1.96875 -3.671875 C 1.988281 -3.398438 2 -3.15625 2 -2.9375 L 2 0 L 0.796875 0 L 0.796875 -6.328125 L 2.625 -6.328125 L 4.125 -1.484375 L 4.140625 -1.484375 L 5.734375 -6.328125 L 7.5625 -6.328125 L 7.5625 0 L 6.3125 0 L 6.3125 -3 C 6.3125 -3.195312 6.3125 -3.425781 6.3125 -3.6875 C 6.320312 -3.945312 6.332031 -4.191406 6.34375 -4.421875 C 6.351562 -4.660156 6.363281 -4.835938 6.375 -4.953125 L 6.328125 -4.953125 L 4.703125 0 Z M 3.46875 0 "/></g></g><g transform="translate(34.240417, 17.467902)"><g><path d="M 5.09375 -2.421875 C 5.09375 -2.023438 5.035156 -1.671875 4.921875 -1.359375 C 4.816406 -1.046875 4.660156 -0.78125 4.453125 -0.5625 C 4.242188 -0.351562 3.992188 -0.191406 3.703125 -0.078125 C 3.421875 0.0351562 3.097656 0.09375 2.734375 0.09375 C 2.390625 0.09375 2.070312 0.0351562 1.78125 -0.078125 C 1.5 -0.191406 1.253906 -0.351562 1.046875 -0.5625 C 0.835938 -0.78125 0.675781 -1.046875 0.5625 -1.359375 C 0.445312 -1.671875 0.390625 -2.023438 0.390625 -2.421875 C 0.390625 -2.960938 0.484375 -3.414062 0.671875 -3.78125 C 0.867188 -4.15625 1.144531 -4.4375 1.5 -4.625 C 1.851562 -4.820312 2.269531 -4.921875 2.75 -4.921875 C 3.207031 -4.921875 3.609375 -4.820312 3.953125 -4.625 C 4.304688 -4.4375 4.582031 -4.15625 4.78125 -3.78125 C 4.988281 -3.414062 5.09375 -2.960938 5.09375 -2.421875 Z M 1.75 -2.421875 C 1.75 -2.109375 1.78125 -1.84375 1.84375 -1.625 C 1.914062 -1.40625 2.023438 -1.238281 2.171875 -1.125 C 2.316406 -1.019531 2.507812 -0.96875 2.75 -0.96875 C 2.976562 -0.96875 3.164062 -1.019531 3.3125 -1.125 C 3.457031 -1.238281 3.5625 -1.40625 3.625 -1.625 C 3.695312 -1.84375 3.734375 -2.109375 3.734375 -2.421875 C 3.734375 -2.742188 3.695312 -3.007812 3.625 -3.21875 C 3.5625 -3.4375 3.457031 -3.597656 3.3125 -3.703125 C 3.164062 -3.804688 2.972656 -3.859375 2.734375 -3.859375 C 2.390625 -3.859375 2.140625 -3.738281 1.984375 -3.5 C 1.828125 -3.257812 1.75 -2.898438 1.75 -2.421875 Z M 1.75 -2.421875 "/></g></g><g transform="translate(39.725936, 17.467902)"><g><path d="M 3.390625 -4.921875 C 3.453125 -4.921875 3.523438 -4.914062 3.609375 -4.90625 C 3.703125 -4.90625 3.78125 -4.898438 3.84375 -4.890625 L 3.734375 -3.65625 C 3.691406 -3.664062 3.628906 -3.671875 3.546875 -3.671875 C 3.472656 -3.679688 3.40625 -3.6875 3.34375 -3.6875 C 3.175781 -3.6875 3.007812 -3.664062 2.84375 -3.625 C 2.6875 -3.582031 2.546875 -3.515625 2.421875 -3.421875 C 2.296875 -3.328125 2.195312 -3.195312 2.125 -3.03125 C 2.050781 -2.875 2.015625 -2.6875 2.015625 -2.46875 L 2.015625 0 L 0.6875 0 L 0.6875 -4.84375 L 1.6875 -4.84375 L 1.890625 -4.015625 L 1.953125 -4.015625 C 2.046875 -4.179688 2.160156 -4.332031 2.296875 -4.46875 C 2.441406 -4.613281 2.609375 -4.722656 2.796875 -4.796875 C 2.984375 -4.878906 3.179688 -4.921875 3.390625 -4.921875 Z M 3.390625 -4.921875 "/></g></g><g transform="translate(43.749226, 17.467902)"><g><path d="M 2.6875 -4.921875 C 3.132812 -4.921875 3.519531 -4.832031 3.84375 -4.65625 C 4.164062 -4.488281 4.414062 -4.242188 4.59375 -3.921875 C 4.769531 -3.597656 4.859375 -3.203125 4.859375 -2.734375 L 4.859375 -2.09375 L 1.734375 -2.09375 C 1.742188 -1.71875 1.851562 -1.421875 2.0625 -1.203125 C 2.28125 -0.992188 2.570312 -0.890625 2.9375 -0.890625 C 3.25 -0.890625 3.53125 -0.921875 3.78125 -0.984375 C 4.039062 -1.046875 4.304688 -1.144531 4.578125 -1.28125 L 4.578125 -0.25 C 4.335938 -0.132812 4.085938 -0.0507812 3.828125 0 C 3.566406 0.0625 3.25 0.09375 2.875 0.09375 C 2.394531 0.09375 1.96875 0.00390625 1.59375 -0.171875 C 1.21875 -0.359375 0.921875 -0.632812 0.703125 -1 C 0.492188 -1.363281 0.390625 -1.828125 0.390625 -2.390625 C 0.390625 -2.953125 0.484375 -3.421875 0.671875 -3.796875 C 0.867188 -4.171875 1.140625 -4.453125 1.484375 -4.640625 C 1.828125 -4.828125 2.226562 -4.921875 2.6875 -4.921875 Z M 2.6875 -3.984375 C 2.4375 -3.984375 2.222656 -3.898438 2.046875 -3.734375 C 1.878906 -3.578125 1.785156 -3.320312 1.765625 -2.96875 L 3.609375 -2.96875 C 3.609375 -3.164062 3.570312 -3.335938 3.5 -3.484375 C 3.4375 -3.640625 3.335938 -3.757812 3.203125 -3.84375 C 3.066406 -3.9375 2.894531 -3.984375 2.6875 -3.984375 Z M 2.6875 -3.984375 "/></g></g><g transform="translate(48.98383, 17.467902)"><g/></g><g transform="translate(51.285326, 17.467902)"><g><path d="M 0.796875 0 L 0.796875 -6.328125 L 2.140625 -6.328125 L 2.140625 0 Z M 0.796875 0 "/></g></g><g transform="translate(54.218435, 17.467902)"><g><path d="M 3.4375 -4.921875 C 3.957031 -4.921875 4.375 -4.78125 4.6875 -4.5 C 5 -4.21875 5.15625 -3.769531 5.15625 -3.15625 L 5.15625 0 L 3.84375 0 L 3.84375 -2.828125 C 3.84375 -3.171875 3.773438 -3.429688 3.640625 -3.609375 C 3.515625 -3.785156 3.320312 -3.875 3.0625 -3.875 C 2.65625 -3.875 2.378906 -3.734375 2.234375 -3.453125 C 2.085938 -3.179688 2.015625 -2.789062 2.015625 -2.28125 L 2.015625 0 L 0.6875 0 L 0.6875 -4.84375 L 1.703125 -4.84375 L 1.875 -4.21875 L 1.953125 -4.21875 C 2.054688 -4.382812 2.179688 -4.519531 2.328125 -4.625 C 2.484375 -4.726562 2.65625 -4.800781 2.84375 -4.84375 C 3.039062 -4.894531 3.238281 -4.921875 3.4375 -4.921875 Z M 3.4375 -4.921875 "/></g></g><g transform="translate(60.041391, 17.467902)"><g><path d="M 3.359375 -3.84375 L 2.21875 -3.84375 L 2.21875 0 L 0.90625 0 L 0.90625 -3.84375 L 0.171875 -3.84375 L 0.171875 -4.484375 L 0.90625 -4.84375 L 0.90625 -5.1875 C 0.90625 -5.601562 0.972656 -5.925781 1.109375 -6.15625 C 1.253906 -6.382812 1.453125 -6.546875 1.703125 -6.640625 C 1.960938 -6.734375 2.265625 -6.78125 2.609375 -6.78125 C 2.867188 -6.78125 3.101562 -6.757812 3.3125 -6.71875 C 3.519531 -6.675781 3.691406 -6.628906 3.828125 -6.578125 L 3.484375 -5.609375 C 3.390625 -5.640625 3.28125 -5.664062 3.15625 -5.6875 C 3.039062 -5.71875 2.90625 -5.734375 2.75 -5.734375 C 2.570312 -5.734375 2.4375 -5.675781 2.34375 -5.5625 C 2.257812 -5.457031 2.21875 -5.316406 2.21875 -5.140625 L 2.21875 -4.84375 L 3.359375 -4.84375 Z M 3.359375 -3.84375 "/></g></g><g transform="translate(63.472003, 17.467902)"><g><path d="M 5.09375 -2.421875 C 5.09375 -2.023438 5.035156 -1.671875 4.921875 -1.359375 C 4.816406 -1.046875 4.660156 -0.78125 4.453125 -0.5625 C 4.242188 -0.351562 3.992188 -0.191406 3.703125 -0.078125 C 3.421875 0.0351562 3.097656 0.09375 2.734375 0.09375 C 2.390625 0.09375 2.070312 0.0351562 1.78125 -0.078125 C 1.5 -0.191406 1.253906 -0.351562 1.046875 -0.5625 C 0.835938 -0.78125 0.675781 -1.046875 0.5625 -1.359375 C 0.445312 -1.671875 0.390625 -2.023438 0.390625 -2.421875 C 0.390625 -2.960938 0.484375 -3.414062 0.671875 -3.78125 C 0.867188 -4.15625 1.144531 -4.4375 1.5 -4.625 C 1.851562 -4.820312 2.269531 -4.921875 2.75 -4.921875 C 3.207031 -4.921875 3.609375 -4.820312 3.953125 -4.625 C 4.304688 -4.4375 4.582031 -4.15625 4.78125 -3.78125 C 4.988281 -3.414062 5.09375 -2.960938 5.09375 -2.421875 Z M 1.75 -2.421875 C 1.75 -2.109375 1.78125 -1.84375 1.84375 -1.625 C 1.914062 -1.40625 2.023438 -1.238281 2.171875 -1.125 C 2.316406 -1.019531 2.507812 -0.96875 2.75 -0.96875 C 2.976562 -0.96875 3.164062 -1.019531 3.3125 -1.125 C 3.457031 -1.238281 3.5625 -1.40625 3.625 -1.625 C 3.695312 -1.84375 3.734375 -2.109375 3.734375 -2.421875 C 3.734375 -2.742188 3.695312 -3.007812 3.625 -3.21875 C 3.5625 -3.4375 3.457031 -3.597656 3.3125 -3.703125 C 3.164062 -3.804688 2.972656 -3.859375 2.734375 -3.859375 C 2.390625 -3.859375 2.140625 -3.738281 1.984375 -3.5 C 1.828125 -3.257812 1.75 -2.898438 1.75 -2.421875 Z M 1.75 -2.421875 "/></g></g></g></svg>