<svg xmlns="http://www.w3.org/2000/svg" xmlns:xlink="http://www.w3.org/1999/xlink" width="70" zoomAndPan="magnify" viewBox="0 0 52.5 30.000001" height="40" preserveAspectRatio="xMidYMid meet" version="1.0"><defs><g/><clipPath id="2a9b596301"><path d="M 5.855469 8.40625 L 17.46875 8.40625 L 17.46875 21.472656 L 5.855469 21.472656 Z M 5.855469 8.40625 " clip-rule="nonzero"/></clipPath></defs><g clip-path="url(#2a9b596301)"><path fill="#000000" d="M 17.074219 14.253906 L 7.089844 8.582031 C 6.835938 8.4375 6.527344 8.4375 6.273438 8.582031 C 6.019531 8.722656 5.863281 8.988281 5.863281 9.277344 L 5.863281 20.628906 C 5.863281 20.914062 6.019531 21.183594 6.273438 21.324219 C 6.398438 21.398438 6.539062 21.433594 6.683594 21.433594 C 6.824219 21.433594 6.964844 21.398438 7.089844 21.324219 L 17.074219 15.652344 C 17.324219 15.507812 17.480469 15.242188 17.480469 14.953125 C 17.480469 14.664062 17.324219 14.398438 17.074219 14.253906 Z M 17.074219 14.253906 " fill-opacity="1" fill-rule="nonzero"/></g><g fill="#000000" fill-opacity="1"><g transform="translate(21.812091, 18.91288)"><g><path d="M 3.671875 -8.25 C 4.734375 -8.25 5.507812 -8.019531 6 -7.5625 C 6.488281 -7.101562 6.734375 -6.472656 6.734375 -5.671875 C 6.734375 -5.316406 6.675781 -4.972656 6.5625 -4.640625 C 6.457031 -4.316406 6.28125 -4.023438 6.03125 -3.765625 C 5.789062 -3.503906 5.460938 -3.300781 5.046875 -3.15625 C 4.640625 -3.007812 4.140625 -2.9375 3.546875 -2.9375 L 2.78125 -2.9375 L 2.78125 0 L 1.03125 0 L 1.03125 -8.25 Z M 3.578125 -6.8125 L 2.78125 -6.8125 L 2.78125 -4.375 L 3.359375 -4.375 C 3.691406 -4.375 3.976562 -4.414062 4.21875 -4.5 C 4.457031 -4.582031 4.640625 -4.71875 4.765625 -4.90625 C 4.898438 -5.09375 4.96875 -5.332031 4.96875 -5.625 C 4.96875 -6.03125 4.851562 -6.328125 4.625 -6.515625 C 4.40625 -6.710938 4.054688 -6.8125 3.578125 -6.8125 Z M 3.578125 -6.8125 "/></g></g></g><g fill="#000000" fill-opacity="1"><g transform="translate(29.070979, 18.91288)"><g><path d="M 2.625 0 L 0.90625 0 L 0.90625 -8.78125 L 2.625 -8.78125 Z M 2.625 0 "/></g></g></g><g fill="#000000" fill-opacity="1"><g transform="translate(32.598821, 18.91288)"><g><path d="M 3.484375 -6.4375 C 4.335938 -6.4375 4.988281 -6.25 5.4375 -5.875 C 5.882812 -5.507812 6.109375 -4.953125 6.109375 -4.203125 L 6.109375 0 L 4.90625 0 L 4.578125 -0.859375 L 4.53125 -0.859375 C 4.351562 -0.628906 4.171875 -0.441406 3.984375 -0.296875 C 3.796875 -0.160156 3.578125 -0.0625 3.328125 0 C 3.085938 0.0703125 2.789062 0.109375 2.4375 0.109375 C 2.0625 0.109375 1.726562 0.0390625 1.4375 -0.09375 C 1.144531 -0.238281 0.910156 -0.457031 0.734375 -0.75 C 0.566406 -1.050781 0.484375 -1.429688 0.484375 -1.890625 C 0.484375 -2.554688 0.71875 -3.046875 1.1875 -3.359375 C 1.65625 -3.679688 2.363281 -3.859375 3.3125 -3.890625 L 4.40625 -3.921875 L 4.40625 -4.203125 C 4.40625 -4.535156 4.316406 -4.78125 4.140625 -4.9375 C 3.972656 -5.09375 3.734375 -5.171875 3.421875 -5.171875 C 3.117188 -5.171875 2.816406 -5.125 2.515625 -5.03125 C 2.222656 -4.945312 1.929688 -4.835938 1.640625 -4.703125 L 1.078125 -5.875 C 1.410156 -6.050781 1.785156 -6.1875 2.203125 -6.28125 C 2.617188 -6.382812 3.046875 -6.4375 3.484375 -6.4375 Z M 4.40625 -2.921875 L 3.734375 -2.90625 C 3.179688 -2.882812 2.796875 -2.78125 2.578125 -2.59375 C 2.359375 -2.414062 2.25 -2.175781 2.25 -1.875 C 2.25 -1.613281 2.328125 -1.425781 2.484375 -1.3125 C 2.640625 -1.195312 2.84375 -1.140625 3.09375 -1.140625 C 3.457031 -1.140625 3.765625 -1.25 4.015625 -1.46875 C 4.273438 -1.6875 4.40625 -2 4.40625 -2.40625 Z M 4.40625 -2.921875 "/></g></g></g><g fill="#000000" fill-opacity="1"><g transform="translate(39.581126, 18.91288)"><g><path d="M 0 -6.3125 L 1.890625 -6.3125 L 3.078125 -2.765625 C 3.117188 -2.648438 3.148438 -2.53125 3.171875 -2.40625 C 3.203125 -2.289062 3.222656 -2.171875 3.234375 -2.046875 C 3.253906 -1.929688 3.269531 -1.804688 3.28125 -1.671875 L 3.3125 -1.671875 C 3.34375 -1.867188 3.375 -2.054688 3.40625 -2.234375 C 3.445312 -2.410156 3.5 -2.585938 3.5625 -2.765625 L 4.734375 -6.3125 L 6.578125 -6.3125 L 3.90625 0.8125 C 3.75 1.25 3.539062 1.613281 3.28125 1.90625 C 3.019531 2.195312 2.71875 2.414062 2.375 2.5625 C 2.039062 2.707031 1.671875 2.78125 1.265625 2.78125 C 1.078125 2.78125 0.910156 2.769531 0.765625 2.75 C 0.617188 2.726562 0.492188 2.707031 0.390625 2.6875 L 0.390625 1.3125 C 0.472656 1.332031 0.570312 1.347656 0.6875 1.359375 C 0.8125 1.378906 0.941406 1.390625 1.078125 1.390625 C 1.316406 1.390625 1.519531 1.335938 1.6875 1.234375 C 1.863281 1.128906 2.007812 0.988281 2.125 0.8125 C 2.238281 0.644531 2.332031 0.460938 2.40625 0.265625 L 2.5 -0.046875 Z M 0 -6.3125 "/></g></g></g></svg>